<?xml version="1.0" encoding="UTF-8"?>
<svg xmlns="http://www.w3.org/2000/svg" xmlns:xlink="http://www.w3.org/1999/xlink" width="42px" height="42px" viewBox="0 0 42 42" version="1.1">
<g id="surface1">
<path style=" stroke:none;fill-rule:evenodd;fill:rgb(0%,46.666667%,72.156863%);fill-opacity:1;" d="M 26.285156 25.195312 C 25.476562 25.195312 24.820312 25.898438 24.820312 26.761719 C 24.820312 27.625 25.476562 28.324219 26.285156 28.324219 C 27.089844 28.324219 27.746094 27.625 27.746094 26.761719 C 27.746094 25.898438 27.089844 25.195312 26.285156 25.195312 M 34.246094 34.527344 L 28.800781 34.527344 C 26.851562 34.527344 25.261719 32.949219 25.261719 31.003906 L 25.261719 30.488281 C 23.679688 30.03125 22.566406 28.519531 22.566406 26.761719 C 22.566406 24.628906 24.230469 22.894531 26.277344 22.894531 C 28.308594 22.894531 29.960938 24.628906 29.960938 26.761719 C 29.960938 28.410156 28.964844 29.859375 27.503906 30.402344 L 27.503906 31.003906 C 27.503906 31.671875 28.085938 32.210938 28.800781 32.210938 L 34.246094 32.210938 C 34.859375 32.210938 35.359375 32.730469 35.359375 33.371094 C 35.359375 34.007812 34.859375 34.527344 34.246094 34.527344 Z M 32.183594 21.882812 C 30.566406 21.882812 29.136719 20.757812 28.660156 19.164062 L 27.015625 19.164062 C 25.074219 19.164062 23.441406 17.546875 23.441406 15.632812 L 23.441406 8.847656 C 23.441406 8.09375 22.996094 7.566406 22.359375 7.566406 L 16.1875 7.566406 C 15.570312 7.566406 15.074219 7.046875 15.074219 6.410156 C 15.074219 5.769531 15.570312 5.25 16.1875 5.25 L 22.359375 5.25 C 24.222656 5.25 25.679688 6.832031 25.679688 8.847656 L 25.679688 15.632812 C 25.679688 16.292969 26.292969 16.851562 27.015625 16.851562 L 28.65625 16.851562 C 29.125 15.242188 30.527344 14.144531 32.183594 14.144531 C 34.21875 14.144531 35.875 15.882812 35.875 18.015625 C 35.875 20.148438 34.21875 21.882812 32.183594 21.882812 Z M 32.183594 16.449219 C 31.375 16.449219 30.71875 17.148438 30.71875 18.011719 C 30.71875 18.875 31.375 19.578125 32.183594 19.578125 C 32.988281 19.578125 33.644531 18.875 33.644531 18.011719 C 33.644531 17.148438 32.988281 16.449219 32.183594 16.449219 Z M 19.777344 37.625 C 19.160156 37.625 18.65625 37.109375 18.65625 36.472656 L 18.65625 14.570312 C 18.65625 13.859375 18.144531 13.328125 17.472656 13.328125 L 10.6875 13.328125 C 10.183594 14.894531 8.792969 15.960938 7.191406 15.960938 C 5.15625 15.960938 3.5 14.234375 3.5 12.109375 C 3.5 9.972656 5.15625 8.230469 7.191406 8.230469 C 8.859375 8.230469 10.296875 9.378906 10.742188 11.011719 L 17.472656 11.011719 C 19.394531 11.011719 20.898438 12.574219 20.898438 14.570312 L 20.898438 36.472656 C 20.898438 37.109375 20.394531 37.625 19.777344 37.625 Z M 7.191406 10.5625 C 6.386719 10.5625 5.730469 11.261719 5.730469 12.125 C 5.730469 12.988281 6.386719 13.691406 7.191406 13.691406 C 7.996094 13.691406 8.652344 12.988281 8.652344 12.125 C 8.652344 11.261719 7.996094 10.5625 7.191406 10.5625 Z M 10.484375 34.527344 L 5.050781 34.527344 C 4.4375 34.527344 3.9375 34.007812 3.9375 33.371094 C 3.9375 32.730469 4.4375 32.210938 5.050781 32.210938 L 10.484375 32.210938 C 11.148438 32.210938 11.59375 31.726562 11.59375 31.003906 L 11.59375 24.703125 C 10.09375 24.183594 9.078125 22.726562 9.078125 21.039062 C 9.078125 18.90625 10.738281 17.171875 12.777344 17.171875 C 14.8125 17.171875 16.46875 18.90625 16.46875 21.039062 C 16.46875 22.714844 15.359375 24.242188 13.835938 24.738281 L 13.835938 31.003906 C 13.835938 33.011719 12.394531 34.527344 10.484375 34.527344 Z M 12.777344 19.472656 C 11.972656 19.472656 11.316406 20.175781 11.316406 21.039062 C 11.316406 21.902344 11.972656 22.601562 12.777344 22.601562 C 13.585938 22.601562 14.242188 21.902344 14.242188 21.039062 C 14.242188 20.175781 13.585938 19.472656 12.777344 19.472656 Z M 12.777344 19.472656 "/>
</g>
</svg>
