<?xml version="1.0" encoding="UTF-8"?>
<svg xmlns="http://www.w3.org/2000/svg" xmlns:xlink="http://www.w3.org/1999/xlink" width="42px" height="42px" viewBox="0 0 42 42" version="1.1">
<g id="surface1">
<path style="fill:none;stroke-width:2;stroke-linecap:butt;stroke-linejoin:round;stroke:rgb(0%,46.666667%,72.156863%);stroke-opacity:1;stroke-miterlimit:4;" d="M 5 1 L 43 1 C 45.209821 1 47 2.790179 47 5 L 47 43 C 47 45.209821 45.209821 47 43 47 L 5 47 C 2.790179 47 1 45.209821 1 43 L 1 5 C 1 2.790179 2.790179 1 5 1 Z M 5 1 " transform="matrix(-0.875,0.000000000000000107,-0.000000000000000107,-0.875,42,42)"/>
<path style="fill:none;stroke-width:2;stroke-linecap:round;stroke-linejoin:round;stroke:rgb(0%,46.666667%,72.156863%);stroke-opacity:1;stroke-miterlimit:4;" d="M 4 22 L 11 22 L 11 44 L 4 44 Z M 4 22 " transform="matrix(0.875,0,0,0.875,0,0)"/>
<path style="fill:none;stroke-width:2;stroke-linecap:round;stroke-linejoin:round;stroke:rgb(0%,46.666667%,72.156863%);stroke-opacity:1;stroke-miterlimit:4;" d="M 15 28 L 22 28 L 22 44 L 15 44 Z M 15 28 " transform="matrix(0.875,0,0,0.875,0,0)"/>
<path style="fill:none;stroke-width:2;stroke-linecap:round;stroke-linejoin:round;stroke:rgb(0%,46.666667%,72.156863%);stroke-opacity:1;stroke-miterlimit:4;" d="M 26 19 L 33 19 L 33 44 L 26 44 Z M 26 19 " transform="matrix(0.875,0,0,0.875,0,0)"/>
<path style="fill:none;stroke-width:2;stroke-linecap:round;stroke-linejoin:round;stroke:rgb(0%,46.666667%,72.156863%);stroke-opacity:1;stroke-miterlimit:4;" d="M 37 23 L 44 23 L 44 44 L 37 44 Z M 37 23 " transform="matrix(0.875,0,0,0.875,0,0)"/>
<path style="fill:none;stroke-width:2;stroke-linecap:round;stroke-linejoin:round;stroke:rgb(0%,46.666667%,72.156863%);stroke-opacity:1;stroke-miterlimit:4;" d="M 9 14 C 9 15.102679 8.102679 16 7 16 C 5.897321 16 5 15.102679 5 14 C 5 12.897321 5.897321 12 7 12 C 8.102679 12 9 12.897321 9 14 Z M 9 14 " transform="matrix(0.875,0,0,0.875,0,0)"/>
<path style="fill:none;stroke-width:2;stroke-linecap:round;stroke-linejoin:round;stroke:rgb(0%,46.666667%,72.156863%);stroke-opacity:1;stroke-miterlimit:4;" d="M 21 20 C 21 21.102679 20.102679 22 19 22 C 17.897321 22 17 21.102679 17 20 C 17 18.897321 17.897321 18 19 18 C 20.102679 18 21 18.897321 21 20 Z M 21 20 " transform="matrix(0.875,0,0,0.875,0,0)"/>
<path style="fill:none;stroke-width:2;stroke-linecap:round;stroke-linejoin:round;stroke:rgb(0%,46.666667%,72.156863%);stroke-opacity:1;stroke-miterlimit:4;" d="M 32 11 C 32 12.102679 31.102679 13 30 13 C 28.897321 13 28 12.102679 28 11 C 28 9.897321 28.897321 9 30 9 C 31.102679 9 32 9.897321 32 11 Z M 32 11 " transform="matrix(0.875,0,0,0.875,0,0)"/>
<path style="fill:none;stroke-width:2;stroke-linecap:round;stroke-linejoin:round;stroke:rgb(0%,46.666667%,72.156863%);stroke-opacity:1;stroke-miterlimit:4;" d="M 43 15 C 43 16.102679 42.102679 17 41 17 C 39.897321 17 39 16.102679 39 15 C 39 13.897321 39.897321 13 41 13 C 42.102679 13 43 13.897321 43 15 Z M 43 15 " transform="matrix(0.875,0,0,0.875,0,0)"/>
<path style="fill:none;stroke-width:2;stroke-linecap:round;stroke-linejoin:round;stroke:rgb(0%,46.666667%,72.156863%);stroke-opacity:1;stroke-miterlimit:4;" d="M 9 15 L 17 19 " transform="matrix(0.875,0,0,0.875,0,0)"/>
<path style="fill:none;stroke-width:2;stroke-linecap:round;stroke-linejoin:round;stroke:rgb(0%,46.666667%,72.156863%);stroke-opacity:1;stroke-miterlimit:4;" d="M 21 19 L 28 12 " transform="matrix(0.875,0,0,0.875,0,0)"/>
<path style="fill:none;stroke-width:2;stroke-linecap:round;stroke-linejoin:round;stroke:rgb(0%,46.666667%,72.156863%);stroke-opacity:1;stroke-miterlimit:4;" d="M 32 12 L 39 14 " transform="matrix(0.875,0,0,0.875,0,0)"/>
</g>
</svg>
