<?xml version="1.0" encoding="UTF-8"?>
<svg xmlns="http://www.w3.org/2000/svg" xmlns:xlink="http://www.w3.org/1999/xlink" width="42px" height="42px" viewBox="0 0 42 42" version="1.1">
<g id="surface1">
<path style=" stroke:none;fill-rule:nonzero;fill:rgb(0%,46.666667%,72.156863%);fill-opacity:1;" d="M 39.628906 28.226562 L 35.941406 15.867188 L 35.917969 15.933594 C 35.464844 7.058594 28.128906 0 19.140625 0 C 9.863281 0 2.339844 7.519531 2.339844 16.800781 L 2.339844 22.867188 C 2.339844 26.730469 3.648438 30.289062 5.839844 33.125 L 5.839844 42 L 25.515625 42 L 25.515625 38.410156 C 29.546875 36.757812 32.785156 33.582031 34.53125 29.601562 L 38.929688 29.246094 C 39.167969 29.226562 39.386719 29.101562 39.523438 28.902344 C 39.65625 28.703125 39.695312 28.457031 39.628906 28.226562 Z M 19.140625 23.785156 C 16.761719 23.785156 14.539062 23.609375 12.640625 23.3125 L 12.640625 20.015625 C 12.640625 19.289062 12.050781 18.703125 11.328125 18.703125 C 10.601562 18.703125 10.015625 19.289062 10.015625 20.015625 L 10.015625 22.765625 C 7.867188 22.179688 6.539062 21.390625 6.539062 20.519531 L 6.539062 17.226562 C 8.082031 17.226562 9.132812 17.226562 10.179688 17.226562 C 10.753906 17.222656 11.273438 17.207031 11.8125 17.078125 C 12.210938 16.984375 12.632812 16.808594 12.996094 16.507812 C 13.269531 16.285156 13.496094 16.003906 13.65625 15.703125 C 13.902344 15.246094 14.023438 14.765625 14.097656 14.242188 C 14.171875 13.71875 14.199219 13.144531 14.199219 12.46875 C 14.199219 11.742188 13.609375 11.15625 12.886719 11.15625 C 12.160156 11.15625 11.574219 11.742188 11.574219 12.46875 C 11.574219 13.183594 11.535156 13.714844 11.472656 14.046875 C 11.425781 14.296875 11.367188 14.421875 11.34375 14.460938 L 11.332031 14.476562 L 11.300781 14.492188 C 11.25 14.515625 11.132812 14.546875 10.945312 14.566406 C 10.753906 14.589844 10.496094 14.601562 10.179688 14.601562 C 9.179688 14.601562 8.179688 14.601562 6.746094 14.601562 C 7.789062 8.699219 12.945312 4.199219 19.140625 4.199219 C 26.089844 4.199219 31.742188 9.851562 31.742188 16.800781 L 31.742188 17.226562 L 29.703125 17.226562 C 29.695312 17.148438 29.695312 17.070312 29.695312 16.984375 C 29.695312 16.847656 29.699219 16.707031 29.699219 16.554688 C 29.699219 15.972656 29.699219 14.925781 29.699219 14.925781 C 29.699219 14.199219 29.113281 13.613281 28.386719 13.613281 C 27.660156 13.613281 27.074219 14.199219 27.074219 14.925781 C 27.074219 14.925781 27.074219 15.1875 27.074219 15.523438 C 27.074219 15.855469 27.074219 16.265625 27.074219 16.554688 C 27.074219 16.640625 27.070312 16.796875 27.070312 16.984375 C 27.070312 17.175781 27.074219 17.398438 27.101562 17.644531 C 27.144531 18.011719 27.210938 18.441406 27.507812 18.925781 C 27.660156 19.164062 27.890625 19.414062 28.195312 19.589844 C 28.503906 19.769531 28.867188 19.855469 29.203125 19.851562 L 31.742188 19.851562 L 31.742188 20.519531 C 31.742188 22.320312 26.089844 23.785156 19.140625 23.785156 Z M 19.140625 23.785156 "/>
<path style=" stroke:none;fill-rule:nonzero;fill:rgb(0%,46.666667%,72.156863%);fill-opacity:1;" d="M 23.941406 8.199219 C 23.769531 7.945312 23.542969 7.714844 23.289062 7.539062 C 22.902344 7.269531 22.46875 7.113281 22.015625 7.019531 C 21.5625 6.925781 21.074219 6.890625 20.515625 6.890625 C 18.546875 6.890625 18.875 6.890625 16.25 6.890625 C 15.523438 6.890625 14.9375 7.476562 14.9375 8.203125 C 14.9375 8.929688 15.523438 9.515625 16.25 9.515625 C 18.875 9.515625 18.546875 9.515625 20.515625 9.515625 C 21.035156 9.515625 21.398438 9.5625 21.589844 9.613281 C 21.699219 9.644531 21.75 9.667969 21.769531 9.679688 L 21.78125 9.707031 C 21.816406 9.796875 21.859375 10.09375 21.855469 10.546875 C 21.855469 11.003906 21.828125 11.597656 21.828125 12.304688 C 21.828125 13.03125 22.414062 13.617188 23.140625 13.617188 C 23.863281 13.617188 24.453125 13.03125 24.453125 12.304688 C 24.453125 11.671875 24.480469 11.101562 24.480469 10.546875 C 24.476562 10.113281 24.464844 9.6875 24.371094 9.234375 C 24.296875 8.898438 24.167969 8.535156 23.941406 8.199219 Z M 23.941406 8.199219 "/>
<path style=" stroke:none;fill-rule:nonzero;fill:rgb(0%,46.666667%,72.156863%);fill-opacity:1;" d="M 22.976562 17.390625 L 19.039062 17.390625 C 19.039062 17.027344 19.039062 16.648438 19.039062 16.242188 C 19.039062 15.515625 18.449219 14.929688 17.726562 14.929688 C 17 14.929688 16.414062 15.515625 16.414062 16.242188 C 16.414062 19.03125 16.414062 20.835938 16.414062 20.835938 C 16.414062 21.5625 17 22.148438 17.726562 22.148438 C 18.449219 22.148438 19.039062 21.5625 19.039062 20.835938 C 19.039062 20.835938 19.039062 20.542969 19.039062 20.015625 L 22.976562 20.015625 C 23.699219 20.015625 24.289062 19.429688 24.289062 18.703125 C 24.289062 17.976562 23.699219 17.390625 22.976562 17.390625 Z M 22.976562 17.390625 "/>
</g>
</svg>
